<?xml version="1.0" encoding="utf-8"?>
<!-- Generator: Adobe Illustrator 23.0.1, SVG Export Plug-In . SVG Version: 6.00 Build 0)  -->
<svg version="1.1" id="Layer_1" xmlns="http://www.w3.org/2000/svg" x="0px" y="0px"
     viewBox="0 0 841.89 1190.55" style="enable-background:new 0 0 841.89 1190.55;" xml:space="preserve">
<style type="text/css">
	.st0{fill:#EE1E4B;}
	.st1{fill:none;}
</style>
<path class="st0" d="M308.47,598.59c-6,0-8.22,0-8.22,0v-34.4h8.16v26.54h11.7v7.86H308.47z"/>
<path class="st0" d="M348.11,585.15c0,7.32-6.18,13.44-13.62,13.44c-7.56,0-13.68-6.12-13.68-13.62c0-7.56,6.12-13.68,13.74-13.68
	C342.05,571.29,348.11,577.47,348.11,585.15z M328.19,584.97c0,3.66,2.76,6.48,6.3,6.48c3.42,0,6.24-2.94,6.24-6.42
	c0-3.6-2.82-6.54-6.24-6.54C330.95,578.49,328.19,581.37,328.19,584.97z"/>
<path class="st0" d="M447.26,579.48c-2.04-1.14-3.78-1.62-5.7-1.62c-1.98,0-3.06,0.6-3.06,1.62c0,0.9,0.6,1.38,2.76,1.98
	c2.82,0.84,3.9,1.38,5.04,2.4c1.62,1.5,2.52,3.78,2.52,6.18c0,5.1-3.96,8.52-9.9,8.52c-2.76,0-5.1-0.54-7.56-1.68v-7.26
	c3.12,1.74,4.68,2.28,6.84,2.28c2.04,0,3.24-0.66,3.24-1.8c0-1.14-0.48-1.5-3.42-2.22c-2.58-0.66-3.72-1.2-4.86-2.34
	c-1.44-1.44-2.16-3.36-2.16-5.52c0-5.04,4.14-8.64,9.96-8.64c1.98,0,3.42,0.3,6.3,1.44V579.48z"/>
<path class="st0" d="M457.77,564.13v20.84c-0.18,5.52,0.78,6.66,5.34,6.72v6.9h-1.44c-5.04,0-8.82-2.34-10.5-6.48
	c-0.66-1.56-0.72-2.4-0.78-7.8v-20.18H457.77z"/>
<circle class="st0" cx="466.44" cy="577.35" r="5.96"/>
<g>
	<path class="st0" d="M421.62,571.29v1.53c-1.85-0.97-3.95-1.53-6.18-1.53c-7.62,0-13.74,6.12-13.74,13.68
		c0,7.5,6.12,13.62,13.68,13.62c2.24,0,4.36-0.56,6.24-1.54v1.54h7.4v-27.3H421.62z M415.38,591.45c-3.54,0-6.3-2.82-6.3-6.48
		c0-3.6,2.76-6.48,6.3-6.48c3.42,0,6.24,2.94,6.24,6.54C421.62,588.51,418.8,591.45,415.38,591.45z"/>
</g>
<g>
	<path class="st0" d="M396.53,588.97c-1.15,1.5-2.92,2.48-4.89,2.48c-3.54,0-6.3-2.82-6.3-6.48c0-3.6,2.76-6.48,6.3-6.48
		c1.94,0,3.68,0.95,4.83,2.42l5.63-4.66c-2.49-3.03-6.22-4.96-10.4-4.96c-7.62,0-13.74,6.12-13.74,13.68
		c0,7.5,6.12,13.62,13.68,13.62c4.21,0,8.02-1.96,10.53-4.99L396.53,588.97z"/>
</g>
<g>
	<path class="st1" d="M363.05,578.58c-3.54,0-6.3,2.88-6.3,6.48c0,3.66,2.76,6.48,6.3,6.48c3.42,0,6.24-2.94,6.24-6.42
		C369.29,581.52,366.47,578.58,363.05,578.58z"/>
	<path class="st0" d="M376.69,582.75v-11.37h-7.4v1.53c-1.85-0.97-3.95-1.53-6.18-1.53c-7.62,0-13.74,6.12-13.74,13.68
		c0,7.5,6.12,13.62,13.68,13.62c2.27,0,4.42-0.58,6.32-1.58v2.02c0,4.74-1.98,7.44-5.46,7.44c-3,0-5.16-1.92-5.88-5.34h-7.32
		c0.36,2.52,0.72,3.78,1.38,5.16c2.04,4.2,6.72,7.02,11.7,7.02c4.02,0,7.8-1.86,10.26-4.98c2.04-2.64,2.64-4.92,2.64-10.26V590
		L376.69,582.75L376.69,582.75z M363.05,591.54c-3.54,0-6.3-2.82-6.3-6.48c0-3.6,2.76-6.48,6.3-6.48c3.42,0,6.24,2.94,6.24,6.54
		C369.29,588.6,366.47,591.54,363.05,591.54z"/>
</g>
<path class="st0" d="M367.19,625.84"/>
</svg>
